<svg width="18" height="20" viewBox="0 0 18 20" fill="none" xmlns="http://www.w3.org/2000/svg">
<path fill-rule="evenodd" clip-rule="evenodd" d="M4.5 0.5C4.91421 0.5 5.25 0.835786 5.25 1.25V2H12.75V1.25C12.75 0.835786 13.0858 0.5 13.5 0.5C13.9142 0.5 14.25 0.835786 14.25 1.25V2H16.5C17.3284 2 18 2.67157 18 3.5V18.5C18 19.3284 17.3284 20 16.5 20H1.5C0.671573 20 0 19.3284 0 18.5V3.5C0 2.67157 0.671573 2 1.5 2H3.75V1.25C3.75 0.835786 4.08579 0.5 4.5 0.5ZM3.75 3.5H1.5V6.5H16.5V3.5H14.25V4.25C14.25 4.66421 13.9142 5 13.5 5C13.0858 5 12.75 4.66421 12.75 4.25V3.5H5.25V4.25C5.25 4.66421 4.91421 5 4.5 5C4.08579 5 3.75 4.66421 3.75 4.25V3.5ZM16.5 8H1.5V18.5H16.5V8ZM4.875 10.9997C4.875 10.5855 5.21079 10.2497 5.625 10.2497H8.25C8.5383 10.2497 8.80109 10.4149 8.92598 10.6748C9.05087 10.9346 9.01575 11.2431 8.83565 11.4682L8.00464 12.507C8.24767 12.6702 8.45712 12.8798 8.62062 13.1244C8.8262 13.4319 8.95277 13.7855 8.98912 14.1536C9.02546 14.5218 8.97046 14.8932 8.82899 15.2351C8.68752 15.5769 8.46394 15.8786 8.17805 16.1134C7.89216 16.3482 7.55278 16.5089 7.18996 16.5812C6.82715 16.6536 6.45209 16.6353 6.09801 16.5281C5.74392 16.4209 5.42174 16.2281 5.15998 15.9666C4.86691 15.6739 4.86662 15.199 5.15933 14.906C5.45205 14.6129 5.92692 14.6126 6.21999 14.9053C6.30725 14.9925 6.41464 15.0568 6.53267 15.0925C6.6507 15.1282 6.77571 15.1343 6.89665 15.1102C7.01759 15.0861 7.13072 15.0325 7.22602 14.9543C7.32131 14.876 7.39584 14.7754 7.443 14.6615C7.49015 14.5475 7.50849 14.4237 7.49637 14.301C7.48426 14.1783 7.44207 14.0604 7.37354 13.9579C7.30501 13.8554 7.21226 13.7713 7.1035 13.7132C6.99473 13.6551 6.87332 13.6247 6.75 13.6247C6.4617 13.6247 6.19891 13.4594 6.07402 13.1996C5.94913 12.9397 5.98425 12.6313 6.16435 12.4062L6.68953 11.7497H5.625C5.21079 11.7497 4.875 11.4139 4.875 10.9997ZM12.3354 10.3289C12.5895 10.4559 12.75 10.7156 12.75 10.9997V15.8747C12.75 16.2889 12.4142 16.6247 12 16.6247C11.5858 16.6247 11.25 16.2889 11.25 15.8747V12.4997L10.95 12.7247C10.6186 12.9732 10.1485 12.9061 9.9 12.5747C9.65147 12.2433 9.71863 11.7732 10.05 11.5247L11.55 10.3997C11.7773 10.2293 12.0813 10.2018 12.3354 10.3289Z" fill="#151515"/>
</svg>
