<svg width="12" height="12" viewBox="0 0 12 12" fill="none" xmlns="http://www.w3.org/2000/svg">
<path fill-rule="evenodd" clip-rule="evenodd" d="M3.06509 0.768272C3.26442 0.967602 3.26442 1.29078 3.06509 1.49011L1.89476 2.66044L10.8708 2.66044C11.1527 2.66044 11.3813 2.88896 11.3813 3.17086C11.3813 3.45275 11.1527 3.68127 10.8708 3.68127L1.89476 3.68127L3.06509 4.85161C3.26442 5.05094 3.26442 5.37411 3.06509 5.57344C2.86576 5.77277 2.54258 5.77277 2.34325 5.57344L0.301582 3.53178C0.102252 3.33245 0.102252 3.00927 0.301582 2.80994L2.34325 0.768272C2.54258 0.568942 2.86576 0.568942 3.06509 0.768272ZM8.46825 6.89327C8.66758 6.69394 8.99076 6.69394 9.19009 6.89327L11.2318 8.93494C11.4311 9.13427 11.4311 9.45745 11.2318 9.65678L9.19009 11.6984C8.99076 11.8978 8.66758 11.8978 8.46825 11.6984C8.26892 11.4991 8.26892 11.1759 8.46825 10.9766L9.63858 9.80628H0.662501C0.380606 9.80628 0.152084 9.57775 0.152084 9.29586C0.152084 9.01396 0.380606 8.78544 0.662501 8.78544H9.63858L8.46825 7.61511C8.26892 7.41578 8.26892 7.0926 8.46825 6.89327Z" fill="#151515"/>
</svg>
