<svg width="499" height="324" viewBox="0 0 499 324" fill="none" xmlns="http://www.w3.org/2000/svg">
<path fill-rule="evenodd" clip-rule="evenodd" d="M352 203C352 195.82 357.82 190 365 190H487C493.075 190 498 185.075 498 179V12C498 5.92487 493.075 1 487 1H304C297.925 1 293 5.92487 293 12V129C293 136.18 287.18 142 280 142H12C5.92487 142 1 146.925 1 153V312C1 318.075 5.92486 323 12 323H341C347.075 323 352 318.075 352 312V203ZM353 203C353 196.373 358.373 191 365 191H487C493.627 191 499 185.627 499 179V12C499 5.37258 493.627 0 487 0H304C297.373 0 292 5.37258 292 12V129C292 135.627 286.627 141 280 141H12C5.37258 141 0 146.373 0 153V312C0 318.627 5.37258 324 12 324H341C347.627 324 353 318.627 353 312V203Z" fill="black"/>
</svg>
