<svg width="42" height="41" viewBox="0 0 42 41" fill="none" xmlns="http://www.w3.org/2000/svg">
<path fill-rule="evenodd" clip-rule="evenodd" d="M30.8853 0L34.3394 2.66692L38.6678 3.22379L39.2251 7.55268L41.8916 11.0064L39.2251 14.4605L38.6678 18.7895L34.3393 19.3463L30.8853 22.0127L27.4312 19.3463L23.1027 18.7895L22.5454 14.4605L19.8789 11.0064L22.5454 7.55268L23.1027 3.22379L27.4311 2.66692L30.8853 0ZM30.8853 2.52677L28.2242 4.58138L24.8892 5.01044L24.4598 8.34579L22.4056 11.0065L24.4598 13.6675L24.8892 17.0028L28.2241 17.4319L30.8853 19.4861L33.5464 17.4319L36.8813 17.0028L37.3107 13.6675L39.365 11.0065L37.3107 8.34579L36.8813 5.01044L33.5463 4.58138L30.8853 2.52677Z" fill="#40DDB6"/>
<path fill-rule="evenodd" clip-rule="evenodd" d="M26.585 27.2249V17.5835H24.585V30.9725L30.8851 26.751L37.1852 30.9725V17.5835H35.1852V27.2249L30.8851 24.3435L26.585 27.2249Z" fill="#40DDB6"/>
<path fill-rule="evenodd" clip-rule="evenodd" d="M4.91504 2.23145H21.9073V4.23145H7.07791L8.02779 16.352C8.02779 16.352 8.02779 16.3519 8.02779 16.352C8.3467 20.4157 11.7372 23.5511 15.8134 23.5511C18.432 23.5511 20.7685 22.2577 22.1897 20.2519L23.8216 21.4082C22.0394 23.9234 19.1045 25.5511 15.8134 25.5511C10.6931 25.5511 6.43443 21.6128 6.03392 16.5084L4.91504 2.23145Z" fill="#40DDB6"/>
<path fill-rule="evenodd" clip-rule="evenodd" d="M2.12162 8.1021C2.06553 7.44544 2.58411 6.87573 3.24882 6.87573H6.19446V4.87573H3.24882C1.37376 4.87573 -0.0815829 6.51314 0.139412 8.37564L0.144715 8.42032L1.47865 14.7393C1.68686 16.2906 3.01179 17.453 4.5819 17.453H6.78977V15.453H4.5819C4.00866 15.453 3.52597 15.0241 3.45858 14.4551L3.45328 14.4103L2.12162 8.1021Z" fill="#40DDB6"/>
<path fill-rule="evenodd" clip-rule="evenodd" d="M16.9873 24.2042C16.9873 24.2039 16.9873 24.2036 17.9835 24.1175C18.9798 24.0314 18.9798 24.0312 18.9798 24.031L18.9806 24.0392L18.9842 24.0766C18.9878 24.1109 18.9934 24.1639 19.0018 24.2334C19.0184 24.3726 19.0455 24.5776 19.0865 24.8325C19.1688 25.3436 19.3059 26.0481 19.5243 26.8202C19.9729 28.4063 20.7162 30.1007 21.8736 31.0927L20.5721 32.6112C18.9531 31.2236 18.0767 29.0508 17.5998 27.3646C17.3554 26.5005 17.2032 25.7176 17.112 25.1503C17.0662 24.866 17.0354 24.6341 17.0159 24.4711C17.0062 24.3896 16.9992 24.3252 16.9946 24.2799L16.9894 24.2267L16.9879 24.2113L16.9875 24.2065L16.9873 24.2042Z" fill="#40DDB6"/>
<path fill-rule="evenodd" clip-rule="evenodd" d="M12.8001 24.031C12.8001 24.0312 12.8 24.0314 13.7963 24.1175C14.7926 24.2036 14.7926 24.2039 14.7926 24.2042L14.7924 24.2065L14.7919 24.2113L14.7905 24.2267L14.7853 24.2799C14.7806 24.3252 14.7737 24.3896 14.7639 24.4711C14.7444 24.6341 14.7137 24.866 14.6679 25.1503C14.5766 25.7176 14.4245 26.5005 14.1801 27.3646C13.7031 29.0508 12.8268 31.2236 11.2078 32.6112L9.90625 31.0927C11.0636 30.1007 11.807 28.4063 12.2556 26.8202C12.474 26.0481 12.6111 25.3436 12.6933 24.8325C12.7343 24.5776 12.7614 24.3726 12.7781 24.2334C12.7864 24.1639 12.7921 24.1109 12.7956 24.0766L12.7993 24.0392L12.8001 24.031Z" fill="#40DDB6"/>
<path fill-rule="evenodd" clip-rule="evenodd" d="M9.67647 32.5757C9.20756 32.5757 8.69336 33.0128 8.69336 33.7248V35.1379H23.0876V33.7248C23.0876 33.0128 22.5734 32.5757 22.1045 32.5757H9.67647ZM24.088 36.1379V37.1379H6.69336V33.7248C6.69336 32.0627 7.95465 30.5757 9.67647 30.5757H22.1045C23.8263 30.5757 25.0876 32.0627 25.0876 33.7248V36.1379H24.088Z" fill="#40DDB6"/>
<path fill-rule="evenodd" clip-rule="evenodd" d="M7.80245 37.1377C7.33353 37.1377 6.81934 37.5748 6.81934 38.2868V38.4331H24.9604V38.2868C24.9604 37.5748 24.4462 37.1377 23.9773 37.1377H7.80245ZM25.9604 39.4331H26.9604V38.2868C26.9604 36.6247 25.6992 35.1377 23.9773 35.1377H7.80245C6.08062 35.1377 4.81934 36.6247 4.81934 38.2868V40.4331H25.9604V39.4331Z" fill="#40DDB6"/>
<path fill-rule="evenodd" clip-rule="evenodd" d="M23.9778 37.1377C24.4467 37.1377 24.9609 37.5748 24.9609 38.2868V38.4331H6.81983V38.2868C6.81983 37.5748 7.33403 37.1377 7.80295 37.1377H23.9778ZM5.81983 39.4331H4.81983V38.2868C4.81983 36.6247 6.08112 35.1377 7.80295 35.1377H23.9778C25.6996 35.1377 26.9609 36.6247 26.9609 38.2868V40.4331H5.81983V39.4331Z" fill="#40DDB6"/>
<path fill-rule="evenodd" clip-rule="evenodd" d="M36.0689 7.88142L29.4543 16.3133L26.1611 13.8866L27.3476 12.2765L29.0785 13.552L34.4953 6.64697L36.0689 7.88142Z" fill="#40DDB6"/>
</svg>
