<svg width="120" height="21" viewBox="0 0 120 21" fill="none" xmlns="http://www.w3.org/2000/svg">
<path d="M9.19467 1.52038C9.46221 0.696981 10.6271 0.696982 10.8946 1.52039L12.6532 6.93257C12.7728 7.30081 13.116 7.55013 13.5032 7.55013H19.1939C20.0597 7.55013 20.4196 8.65801 19.7192 9.1669L15.1153 12.5118C14.8021 12.7394 14.671 13.1428 14.7906 13.511L16.5492 18.9232C16.8167 19.7466 15.8743 20.4313 15.1739 19.9224L10.57 16.5775C10.2567 16.3499 9.83258 16.3499 9.51934 16.5775L4.91545 19.9224C4.21502 20.4313 3.27261 19.7466 3.54015 18.9232L5.29867 13.511C5.41832 13.1428 5.28725 12.7394 4.97401 12.5118L0.370122 9.1669C-0.330307 8.65801 0.0296666 7.55013 0.895444 7.55013H6.58616C6.97334 7.55013 7.3165 7.30081 7.43614 6.93257L9.19467 1.52038Z" fill="#FFA722"/>
<path d="M58.7934 1.62642C59.0551 0.79106 60.2373 0.791062 60.4991 1.62642L62.1587 6.92362C62.2755 7.29641 62.6209 7.55014 63.0116 7.55014H68.4497C69.3076 7.55014 69.6727 8.64143 68.9875 9.15767L64.5327 12.5141C64.2308 12.7416 64.1047 13.1344 64.2177 13.4951L65.906 18.8835C66.1657 19.7126 65.2093 20.3874 64.5153 19.8645L60.184 16.6011C59.8656 16.3612 59.4268 16.3612 59.1084 16.6011L54.7771 19.8645C54.0831 20.3874 53.1267 19.7126 53.3864 18.8835L55.0747 13.4951C55.1877 13.1344 55.0616 12.7416 54.7597 12.5141L50.3049 9.15767C49.6197 8.64143 49.9848 7.55014 50.8427 7.55014H56.2808C56.6715 7.55014 57.0169 7.29641 57.1337 6.92362L58.7934 1.62642Z" fill="#FFA722"/>
<path d="M108.399 1.52038C108.666 0.696981 109.831 0.696982 110.099 1.52039L111.857 6.93257C111.977 7.30081 112.32 7.55013 112.707 7.55013H118.398C119.264 7.55013 119.624 8.65801 118.923 9.1669L114.319 12.5118C114.006 12.7394 113.875 13.1428 113.995 13.511L115.753 18.9232C116.021 19.7466 115.078 20.4313 114.378 19.9224L109.774 16.5775C109.461 16.3499 109.037 16.3499 108.723 16.5775L104.12 19.9224C103.419 20.4313 102.477 19.7466 102.744 18.9232L104.503 13.511C104.622 13.1428 104.491 12.7394 104.178 12.5118L99.5742 9.1669C98.8738 8.65801 99.2338 7.55013 100.1 7.55013H105.79C106.177 7.55013 106.521 7.30081 106.64 6.93257L108.399 1.52038Z" fill="#FFA722"/>
<path d="M34.2191 1.52038C34.4866 0.696981 35.6515 0.696982 35.9191 1.52039L37.6776 6.93257C37.7972 7.30081 38.1404 7.55013 38.5276 7.55013H44.2183C45.0841 7.55013 45.444 8.65801 44.7436 9.1669L40.1397 12.5118C39.8265 12.7394 39.6954 13.1428 39.8151 13.511L41.5736 18.9232C41.8411 19.7466 40.8987 20.4313 40.1983 19.9224L35.5944 16.5775C35.2812 16.3499 34.857 16.3499 34.5438 16.5775L29.9399 19.9224C29.2394 20.4313 28.297 19.7466 28.5646 18.9232L30.3231 13.511C30.4427 13.1428 30.3117 12.7394 29.9984 12.5118L25.3945 9.1669C24.6941 8.65801 25.0541 7.55013 25.9199 7.55013H31.6106C31.9978 7.55013 32.3409 7.30081 32.4606 6.93257L34.2191 1.52038Z" fill="#FFA722"/>
<path d="M83.3744 1.52038C83.6419 0.696981 84.8068 0.696982 85.0743 1.52039L86.8329 6.93257C86.9525 7.30081 87.2957 7.55013 87.6828 7.55013H93.3736C94.2393 7.55013 94.5993 8.65801 93.8989 9.1669L89.295 12.5118C88.9818 12.7394 88.8507 13.1428 88.9703 13.511L90.7289 18.9232C90.9964 19.7466 90.054 20.4313 89.3535 19.9224L84.7497 16.5775C84.4364 16.3499 84.0123 16.3499 83.699 16.5775L79.0951 19.9224C78.3947 20.4313 77.4523 19.7466 77.7198 18.9232L79.4784 13.511C79.598 13.1428 79.4669 12.7394 79.1537 12.5118L74.5498 9.1669C73.8494 8.65801 74.2094 7.55013 75.0751 7.55013H80.7658C81.153 7.55013 81.4962 7.30081 81.6158 6.93257L83.3744 1.52038Z" fill="#FFA722"/>
</svg>
