<svg width="28" height="27" viewBox="0 0 28 27" fill="none" xmlns="http://www.w3.org/2000/svg">
<path d="M6.65585 0C6.13285 0 5.61685 0.188 5.18685 0.531L5.12485 0.562L5.09385 0.594L1.96885 3.813L1.99985 3.843C1.54133 4.25935 1.21645 4.80223 1.06623 5.40309C0.916015 6.00395 0.947202 6.63585 1.15585 7.219C1.15985 7.227 1.15185 7.242 1.15585 7.25C2.00385 9.676 4.17185 14.36 8.40585 18.594C12.6559 22.844 17.4019 24.926 19.7499 25.844H19.7809C20.3693 26.0385 20.998 26.0774 21.6059 25.9568C22.2139 25.8362 22.7802 25.5604 23.2499 25.156L26.4059 22C27.2339 21.172 27.2339 19.734 26.4059 18.906L22.3439 14.844L22.3119 14.781C21.4839 13.953 20.0159 13.953 19.1869 14.781L17.1869 16.781C15.6859 16.0599 14.3053 15.1114 13.0939 13.969C11.4569 12.406 10.6209 10.609 10.3129 9.906L12.3129 7.906C13.1529 7.066 13.1679 5.668 12.2809 4.844L12.3119 4.812L12.2189 4.719L8.21885 0.594L8.18785 0.563L8.12485 0.531C7.70982 0.192103 7.19166 0.00480323 6.65585 0ZM6.65585 2C6.7376 2.00475 6.8151 2.03801 6.87485 2.094L10.8749 6.187L10.9689 6.281C10.9609 6.273 11.0269 6.379 10.9059 6.5L8.40585 9L7.93685 9.438L8.15685 10.062C8.15685 10.062 9.30485 13.137 11.7189 15.438L11.9379 15.625C14.2609 17.746 16.9999 18.906 16.9999 18.906L17.6249 19.188L20.5939 16.218C20.7659 16.047 20.7339 16.047 20.9059 16.218L24.9999 20.314C25.1719 20.485 25.1719 20.423 24.9999 20.594L21.9369 23.657C21.4769 24.052 20.9879 24.134 20.4069 23.939C18.1409 23.048 13.7379 21.114 9.81185 17.189C5.85485 13.231 3.78885 8.743 3.03185 6.564C2.87885 6.157 2.98785 5.556 3.34385 5.251L3.40585 5.188L6.43785 2.095C6.49695 2.03907 6.57368 2.00548 6.65485 2H6.65585Z" fill="black"/>
</svg>
