<svg width="120" height="21" viewBox="0 0 120 21" fill="none" xmlns="http://www.w3.org/2000/svg">
<path fill-rule="evenodd" clip-rule="evenodd" d="M11.0961 2.14046L10.8946 1.52039C10.6271 0.696982 9.46221 0.696981 9.19467 1.52038L7.43614 6.93257C7.3165 7.30081 6.97334 7.55013 6.58616 7.55013H0.895444C0.0296666 7.55013 -0.330307 8.65801 0.370122 9.1669L4.97401 12.5118C5.28725 12.7394 5.41832 13.1428 5.29867 13.511L3.54015 18.9232C3.27261 19.7466 4.21502 20.4313 4.91545 19.9224L9.51934 16.5775C9.83258 16.3499 10.2567 16.3499 10.57 16.5775L15.1739 19.9224C15.8743 20.4313 16.8167 19.7466 16.5492 18.9232L14.7906 13.511C14.671 13.1428 14.8021 12.7394 15.1153 12.5118L19.7192 9.1669C20.4196 8.65801 20.0597 7.55013 19.1939 7.55013H18.5445M18.5419 7.55013H13.5032C13.116 7.55013 12.7728 7.30081 12.6532 6.93257L11.0961 2.14046M10.0447 5.37653L10.7511 7.55061C11.1385 8.74289 12.2495 9.55013 13.5032 9.55013H15.7891L13.9397 10.8938C12.9255 11.6307 12.5011 12.9368 12.8885 14.1291L13.5949 16.3032L11.7456 14.9595C10.7313 14.2226 9.35798 14.2226 8.34377 14.9595L6.49438 16.3032L7.20078 14.1291C7.58818 12.9368 7.16379 11.6307 6.14958 10.8938L4.30019 9.55013H6.58616C7.8398 9.55013 8.95086 8.74289 9.33826 7.55061L10.0447 5.37653Z" fill="#FFA722"/>
<path fill-rule="evenodd" clip-rule="evenodd" d="M57.1337 6.92362C57.0169 7.29641 56.6715 7.55014 56.2808 7.55014H50.8427C49.9848 7.55014 49.6197 8.64143 50.3049 9.15767L54.7597 12.5141C55.0616 12.7416 55.1877 13.1344 55.0747 13.4951L53.5814 18.2613L53.3864 18.8835C53.1267 19.7126 54.0831 20.3874 54.7771 19.8645L55.2978 19.4722L59.1084 16.6011C59.4268 16.3612 59.8656 16.3612 60.184 16.6011L63.9945 19.4721L64.5153 19.8645C65.2093 20.3874 66.1657 19.7126 65.906 18.8835L65.711 18.2613L64.2177 13.4951C64.1047 13.1344 64.2308 12.7416 64.5327 12.5141L68.9875 9.15767C69.6727 8.64143 69.3076 7.55014 68.4497 7.55014H63.0116C62.6209 7.55014 62.2755 7.29641 62.1587 6.92362L60.6941 2.24907L60.4991 1.62642C60.2373 0.791062 59.0551 0.79106 58.7934 1.62642L57.1337 6.92362ZM59.6462 5.59373L59.0422 7.52159C58.664 8.72861 57.5457 9.55014 56.2808 9.55014H54.1494L55.9632 10.9168C56.9407 11.6533 57.3492 12.9251 56.9832 14.0931L56.3249 16.1941L57.9049 15.0037C58.9358 14.227 60.3566 14.227 61.3875 15.0037L62.9675 16.1941L62.3092 14.0931C61.9432 12.9251 62.3517 11.6533 63.3292 10.9168L65.143 9.55014H63.0116C61.7467 9.55014 60.6284 8.72861 60.2502 7.52159L59.6462 5.59373Z" fill="#FFA722"/>
<path fill-rule="evenodd" clip-rule="evenodd" d="M110.3 2.14046L110.099 1.52039C109.831 0.696982 108.666 0.696981 108.399 1.52038L106.64 6.93257C106.521 7.30081 106.177 7.55013 105.79 7.55013H100.1C99.2338 7.55013 98.8738 8.65801 99.5742 9.1669L104.178 12.5118C104.491 12.7394 104.622 13.1428 104.503 13.511L102.744 18.9232C102.477 19.7466 103.419 20.4313 104.12 19.9224L108.723 16.5775C109.037 16.3499 109.461 16.3499 109.774 16.5775L114.378 19.9224C115.078 20.4313 116.021 19.7466 115.753 18.9232L113.995 13.511C113.875 13.1428 114.006 12.7394 114.319 12.5118L118.923 9.1669C119.624 8.65801 119.264 7.55013 118.398 7.55013H117.749M117.746 7.55013H112.707C112.32 7.55013 111.977 7.30081 111.857 6.93257L110.3 2.14046M109.249 5.37653L109.955 7.55061C110.343 8.74289 111.454 9.55013 112.707 9.55013H114.993L113.144 10.8938C112.13 11.6307 111.705 12.9368 112.093 14.1291L112.799 16.3032L110.95 14.9595C109.935 14.2226 108.562 14.2226 107.548 14.9595L105.698 16.3032L106.405 14.1291C106.792 12.9368 106.368 11.6307 105.354 10.8938L103.504 9.55013H105.79C107.044 9.55013 108.155 8.74289 108.542 7.55061L109.249 5.37653Z" fill="#FFA722"/>
<path fill-rule="evenodd" clip-rule="evenodd" d="M36.1205 2.14046L35.9191 1.52039C35.6515 0.696982 34.4866 0.696981 34.2191 1.52038L32.4606 6.93257C32.3409 7.30081 31.9978 7.55013 31.6106 7.55013H25.9199C25.0541 7.55013 24.6941 8.65801 25.3945 9.1669L29.9984 12.5118C30.3117 12.7394 30.4427 13.1428 30.3231 13.511L28.5646 18.9232C28.297 19.7466 29.2394 20.4313 29.9399 19.9224L34.5438 16.5775C34.857 16.3499 35.2812 16.3499 35.5944 16.5775L40.1983 19.9224C40.8987 20.4313 41.8411 19.7466 41.5736 18.9232L39.8151 13.511C39.6954 13.1428 39.8265 12.7394 40.1397 12.5118L44.7436 9.1669C45.444 8.65801 45.0841 7.55013 44.2183 7.55013H43.569M43.5663 7.55013H38.5276C38.1404 7.55013 37.7972 7.30081 37.6776 6.93257L36.1205 2.14046M35.0691 5.37653L35.7755 7.55061C36.1629 8.74289 37.2739 9.55013 38.5276 9.55013H40.8135L38.9642 10.8938C37.9499 11.6307 37.5255 12.9368 37.9129 14.1291L38.6193 16.3032L36.77 14.9595C35.7557 14.2226 34.3824 14.2226 33.3682 14.9595L31.5188 16.3032L32.2252 14.1291C32.6126 12.9368 32.1882 11.6307 31.174 10.8938L29.3246 9.55013H31.6106C32.8642 9.55013 33.9753 8.74289 34.3627 7.55061L35.0691 5.37653Z" fill="#FFA722"/>
<path fill-rule="evenodd" clip-rule="evenodd" d="M85.2758 2.14046L85.0743 1.52039C84.8068 0.696982 83.6419 0.696981 83.3744 1.52038L81.6158 6.93257C81.4962 7.30081 81.153 7.55013 80.7658 7.55013H75.0751C74.2094 7.55013 73.8494 8.65801 74.5498 9.1669L79.1537 12.5118C79.4669 12.7394 79.598 13.1428 79.4784 13.511L77.7198 18.9232C77.4523 19.7466 78.3947 20.4313 79.0951 19.9224L83.699 16.5775C84.0123 16.3499 84.4364 16.3499 84.7497 16.5775L89.3535 19.9224C90.054 20.4313 90.9964 19.7466 90.7289 18.9232L88.9703 13.511C88.8507 13.1428 88.9818 12.7394 89.295 12.5118L93.8989 9.1669C94.5993 8.65801 94.2393 7.55013 93.3736 7.55013H92.7242M92.7216 7.55013H87.6828C87.2957 7.55013 86.9525 7.30081 86.8329 6.93257L85.2758 2.14046M84.2243 5.37653L84.9307 7.55061C85.3181 8.74289 86.4292 9.55013 87.6828 9.55013H89.9688L88.1194 10.8938C87.1052 11.6307 86.6808 12.9368 87.0682 14.1291L87.7746 16.3032L85.9252 14.9595C84.911 14.2226 83.5377 14.2226 82.5235 14.9595L80.6741 16.3032L81.3805 14.1291C81.7679 12.9368 81.3435 11.6307 80.3293 10.8938L78.4799 9.55013H80.7658C82.0195 9.55013 83.1305 8.74289 83.5179 7.55061L84.2243 5.37653Z" fill="#FFA722"/>
</svg>
